<svg xmlns="http://www.w3.org/2000/svg" width="660" height="262" viewBox="0 34 660 262" role="img" aria-labelledby="title desc">
  <title id="title">두 층의 뉴런이 모두 연결된 인공 신경망</title>
  <desc id="desc">왼쪽의 세 뉴런과 오른쪽의 세 뉴런이 가중치를 나타내는 선으로 모두 연결되어 있다.</desc>

  <g fill="none" stroke-linecap="round" stroke-linejoin="round">
    <path d="M151 84 Q330 86 509 84 M500.00 80.00 L509 84 L500.00 88.00" stroke="#93b6ca" stroke-width="2.25"/>
    <path d="M151 84 Q329.559 126.451 509 165 M501.10 159.11 L509 165 L499.34 166.92" stroke="#3d789d" stroke-width="2.25"/>
    <path d="M151 84 Q329.175 166.822 509 246 M502.45 238.65 L509 246 L499.15 245.93" stroke="#d3e1e9" stroke-width="2.25"/>
    <path d="M151 165 Q330.441 126.451 509 84 M499.34 82.08 L509 84 L501.10 89.89" stroke="#3d789d" stroke-width="2.25"/>
    <path d="M151 165 Q330 167 509 165 M500.00 161.00 L509 165 L500.00 169.00" stroke="#93b6ca" stroke-width="2.25"/>
    <path d="M151 165 Q329.559 207.451 509 246 M501.10 240.11 L509 246 L499.34 247.92" stroke="#3d789d" stroke-width="2.25"/>
    <path d="M151 246 Q330.825 166.822 509 84 M499.15 84.07 L509 84 L502.45 91.35" stroke="#3d789d" stroke-width="2.25"/>
    <path d="M151 246 Q330.441 207.451 509 165 M499.34 163.08 L509 165 L501.10 170.89" stroke="#93b6ca" stroke-width="2.25"/>
    <path d="M151 246 Q330 248 509 246 M500.00 242.00 L509 246 L500.00 250.00" stroke="#d3e1e9" stroke-width="2.25"/>
  </g>

  <g fill="#e7eef0" stroke="#393630" stroke-width="2.5" stroke-linejoin="round">
    <path d="M121 54 C138 53 152 67 151 84 C152 101 138 115 121 114 C104 115 90 101 91 84 C90 67 104 53 121 54 Z"/>
    <path d="M123 56 C140 54 150 69 153 83 C150 103 136 113 120 116 C102 113 93 99 89 85 C92 65 106 56 123 56 Z" fill="none" stroke-width="1" opacity=".28"/>
    <path d="M121 135 C138 134 152 148 151 165 C152 182 138 196 121 195 C104 196 90 182 91 165 C90 148 104 134 121 135 Z"/>
    <path d="M123 137 C140 135 150 150 153 164 C150 184 136 194 120 197 C102 194 93 180 89 166 C92 146 106 137 123 137 Z" fill="none" stroke-width="1" opacity=".28"/>
    <path d="M121 216 C138 215 152 229 151 246 C152 263 138 277 121 276 C104 277 90 263 91 246 C90 229 104 215 121 216 Z"/>
    <path d="M123 218 C140 216 150 231 153 245 C150 265 136 275 120 278 C102 275 93 261 89 247 C92 227 106 218 123 218 Z" fill="none" stroke-width="1" opacity=".28"/>
    <path d="M539 54 C556 53 570 67 569 84 C570 101 556 115 539 114 C522 115 508 101 509 84 C508 67 522 53 539 54 Z"/>
    <path d="M541 56 C558 54 568 69 571 83 C568 103 554 113 538 116 C520 113 511 99 507 85 C510 65 524 56 541 56 Z" fill="none" stroke-width="1" opacity=".28"/>
    <path d="M539 135 C556 134 570 148 569 165 C570 182 556 196 539 195 C522 196 508 182 509 165 C508 148 522 134 539 135 Z"/>
    <path d="M541 137 C558 135 568 150 571 164 C568 184 554 194 538 197 C520 194 511 180 507 166 C510 146 524 137 541 137 Z" fill="none" stroke-width="1" opacity=".28"/>
    <path d="M539 216 C556 215 570 229 569 246 C570 263 556 277 539 276 C522 277 508 263 509 246 C508 229 522 215 539 216 Z"/>
    <path d="M541 218 C558 216 568 231 571 245 C568 265 554 275 538 278 C520 275 511 261 507 247 C510 227 524 218 541 218 Z" fill="none" stroke-width="1" opacity=".28"/>
  </g>
</svg>
